<svg t="1710400123160" viewBox="0 0 1024 1024" version="1.1" xmlns="http://www.w3.org/2000/svg">
  <path d="M832 64H192c-17.7 0-32 14.3-32 32v832c0 17.7 14.3 32 32 32h640c17.7 0 32-14.3 32-32V96c0-17.7-14.3-32-32-32z m-40 824H232V136h560v752z" />
  <path d="M320 338h384c4.4 0 8-3.6 8-8v-48c0-4.4-3.6-8-8-8H320c-4.4 0-8 3.6-8 8v48c0 4.4 3.6 8 8 8zM320 466h384c4.4 0 8-3.6 8-8v-48c0-4.4-3.6-8-8-8H320c-4.4 0-8 3.6-8 8v48c0 4.4 3.6 8 8 8zM320 594h384c4.4 0 8-3.6 8-8v-48c0-4.4-3.6-8-8-8H320c-4.4 0-8 3.6-8 8v48c0 4.4 3.6 8 8 8z" />
</svg> 