<svg t="1710400123128" viewBox="0 0 1024 1024" version="1.1" xmlns="http://www.w3.org/2000/svg">
  <path d="M853.333333 256H469.333333c-23.466667 0-42.666667-19.2-42.666666-42.666667V170.666667c0-23.466667 19.2-42.666667 42.666666-42.666667h384c23.466667 0 42.666667 19.2 42.666667 42.666667v42.666666c0 23.466667-19.2 42.666667-42.666667 42.666667zM853.333333 554.666667H469.333333c-23.466667 0-42.666667-19.2-42.666666-42.666667v-42.666667c0-23.466667 19.2-42.666667 42.666666-42.666666h384c23.466667 0 42.666667 19.2 42.666667 42.666666v42.666667c0 23.466667-19.2 42.666667-42.666667 42.666667zM853.333333 853.333333H469.333333c-23.466667 0-42.666667-19.2-42.666666-42.666666v-42.666667c0-23.466667 19.2-42.666667 42.666666-42.666667h384c23.466667 0 42.666667 19.2 42.666667 42.666667v42.666667c0 23.466667-19.2 42.666667-42.666667 42.666666zM298.666667 256h-128C147.2 256 128 236.8 128 213.333333V170.666667c0-23.466667 19.2-42.666667 42.666667-42.666667h128c23.466667 0 42.666667 19.2 42.666666 42.666667v42.666666c0 23.466667-19.2 42.666667-42.666666 42.666667zM298.666667 554.666667h-128C147.2 554.666667 128 535.466667 128 512v-42.666667c0-23.466667 19.2-42.666667 42.666667-42.666666h128c23.466667 0 42.666667 19.2 42.666666 42.666666v42.666667c0 23.466667-19.2 42.666667-42.666666 42.666667zM298.666667 853.333333h-128C147.2 853.333333 128 834.133333 128 810.666667v-42.666667c0-23.466667 19.2-42.666667 42.666667-42.666667h128c23.466667 0 42.666667 19.2 42.666666 42.666667v42.666667c0 23.466667-19.2 42.666667-42.666666 42.666666z" />
</svg> 