<svg t="1710400123141" viewBox="0 0 1024 1024" version="1.1" xmlns="http://www.w3.org/2000/svg">
  <path d="M448 128h-320c-35.2 0-64 28.8-64 64v320c0 35.2 28.8 64 64 64h320c35.2 0 64-28.8 64-64V192c0-35.2-28.8-64-64-64z m0 384h-320V192h320v320zM896 128h-320c-35.2 0-64 28.8-64 64v320c0 35.2 28.8 64 64 64h320c35.2 0 64-28.8 64-64V192c0-35.2-28.8-64-64-64z m0 384h-320V192h320v320zM448 576h-320c-35.2 0-64 28.8-64 64v320c0 35.2 28.8 64 64 64h320c35.2 0 64-28.8 64-64v-320c0-35.2-28.8-64-64-64z m0 384h-320v-320h320v320zM896 576h-320c-35.2 0-64 28.8-64 64v320c0 35.2 28.8 64 64 64h320c35.2 0 64-28.8 64-64v-320c0-35.2-28.8-64-64-64z m0 384h-320v-320h320v320z" />
</svg> 