<svg t="1710400123174" viewBox="0 0 1024 1024" version="1.1" xmlns="http://www.w3.org/2000/svg">
  <path d="M854.6 288.6L639.4 73.4c-6-6-14.1-9.4-22.6-9.4H192c-17.7 0-32 14.3-32 32v832c0 17.7 14.3 32 32 32h640c17.7 0 32-14.3 32-32V311.3c0-8.5-3.4-16.7-9.4-22.7zM790.2 326H602V137.8L790.2 326z m1.8 562H232V136h302v216c0 23.2 18.8 42 42 42h216v494z" />
  <path d="M504.8 661.5c-6.3 6.2-16.4 6.2-22.6 0L412.7 592c-3.8-3.8-10-3.8-13.8 0l-36.7 36.7c-3.8 3.8-3.8 10 0 13.8l149.6 149.6c3.8 3.8 10 3.8 13.8 0l246.3-246.3c3.8-3.8 3.8-10 0-13.8l-36.7-36.7c-3.8-3.8-10-3.8-13.8 0L504.8 661.5z" />
</svg> 