<svg t="1710400123136" viewBox="0 0 1024 1024" version="1.1" xmlns="http://www.w3.org/2000/svg">
  <path d="M924.8 385.6c-22.6-53.4-54.9-101.3-96-142.4-41.1-41.1-89-73.4-142.4-96C631.1 123.8 572.5 112 512 112s-119.1 11.8-174.4 35.2c-53.4 22.6-101.3 54.9-142.4 96-41.1 41.1-73.4 89-96 142.4C75.8 440.9 64 499.5 64 560c0 132.7 58.3 257.7 159.9 343.1l1.7 1.4c5.8 4.8 13.1 7.5 20.6 7.5h531.7c7.5 0 14.8-2.7 20.6-7.5l1.7-1.4C901.7 817.7 960 692.7 960 560c0-60.5-11.9-119.1-35.2-174.4zM761.4 836H262.6C184.5 765.5 140 665.6 140 560c0-205.4 166.6-372 372-372s372 166.6 372 372c0 105.6-44.5 205.5-122.6 276z" />
  <path d="M508.4 688.5c-3.9 3.9-8.9 5.8-13.9 5.8s-10.1-1.9-13.9-5.8l-136-136c-7.7-7.7-7.7-20.2 0-27.9 7.7-7.7 20.2-7.7 27.9 0l122.1 122.1 214.1-214.1c7.7-7.7 20.2-7.7 27.9 0 7.7 7.7 7.7 20.2 0 27.9l-228 228z" />
</svg> 