<svg t="1710400123166" viewBox="0 0 1024 1024" version="1.1" xmlns="http://www.w3.org/2000/svg">
  <path d="M892 772h-80v-80c0-4.4-3.6-8-8-8h-48c-4.4 0-8 3.6-8 8v80h-80c-4.4 0-8 3.6-8 8v48c0 4.4 3.6 8 8 8h80v80c0 4.4 3.6 8 8 8h48c4.4 0 8-3.6 8-8v-80h80c4.4 0 8-3.6 8-8v-48c0-4.4-3.6-8-8-8z" />
  <path d="M832 112H724V72c0-4.4-3.6-8-8-8h-56c-4.4 0-8 3.6-8 8v40H500V72c0-4.4-3.6-8-8-8h-56c-4.4 0-8 3.6-8 8v40H320c-17.7 0-32 14.3-32 32v120h-96c-17.7 0-32 14.3-32 32v632c0 17.7 14.3 32 32 32h512c17.7 0 32-14.3 32-32v-96h96c17.7 0 32-14.3 32-32V144c0-17.7-14.3-32-32-32zM664 888H232V336h96v488c0 17.7 14.3 32 32 32h304v32z m128-128H296V184h128v48c0 4.4 3.6 8 8 8h56c4.4 0 8-3.6 8-8v-48h144v48c0 4.4 3.6 8 8 8h56c4.4 0 8-3.6 8-8v-48h80v576z" />
</svg> 