<svg t="1710400123155" viewBox="0 0 1024 1024" version="1.1" xmlns="http://www.w3.org/2000/svg">
  <path d="M928 160H96c-17.7 0-32 14.3-32 32v640c0 17.7 14.3 32 32 32h832c17.7 0 32-14.3 32-32V192c0-17.7-14.3-32-32-32z m-40 632H136V232h752v560z" />
  <path d="M610.3 476h123.4c1.3 0 2.3-3.6 2.3-8v-48c0-4.4-1-8-2.3-8H610.3c-1.3 0-2.3 3.6-2.3 8v48c0 4.4 1 8 2.3 8z" />
  <path d="M615.7 620.4l-84.9-85.5c-3.1-3.1-8.2-3.1-11.3 0l-84.9 85.5c-3.1 3.1-3.1 8.2 0 11.3l84.9 85.5c3.1 3.1 8.2 3.1 11.3 0l84.9-85.5c3.1-3.1 3.1-8.2 0-11.3z" />
</svg> 