<svg t="1710400123179" viewBox="0 0 1024 1024" version="1.1" xmlns="http://www.w3.org/2000/svg">
  <path d="M512 64C264.6 64 64 264.6 64 512s200.6 448 448 448 448-200.6 448-448S759.4 64 512 64z m0 820c-205.4 0-372-166.6-372-372s166.6-372 372-372 372 166.6 372 372-166.6 372-372 372z" />
  <path d="M559.7 488.8l-25.4-5.9V348.6c38 5.2 61.5 29 65.5 58.2 0.5 4 3.9 6.9 7.9 6.9h44.9c4.7 0 8.4-4.1 8-8.8-6.1-62.3-57.4-102.3-125.9-109.2V272c0-4.4-3.6-8-8-8h-28.1c-4.4 0-8 3.6-8 8v23.8c-70.8 6.9-124.1 46.6-124.1 109.4 0 61.1 48.6 89.4 111.1 105l26.7 5.9v133.7c-44.2-5.9-69.6-29.7-74.4-61.3-0.6-3.8-4-6.6-7.9-6.6H378c-4.7 0-8.4 4-8 8.7 4.5 55 46.2 105.6 135.2 112.1V761c0 4.4 3.6 8 8 8h28.1c4.4 0 8-3.6 8-8v-23.1c71.5-6.9 125.7-48.4 125.7-111.9 0-62.7-52.1-93.2-115.3-108.2zM445.9 419.5c-27.9-8.1-46.1-22.3-46.1-48.2 0-30.5 32.2-50.8 82.1-53.9v102.1h-36z m108.1 187.3c-32.8 8.7-52.8 23.7-52.8 49.2 0 32.8 32.6 52.6 85.5 55.9V606.8h-32.7z" />
</svg> 