<svg t="1576836026" class="icon" viewBox="0 0 1024 1024" version="1.1" xmlns="http://www.w3.org/2000/svg" p-id="1124" width="200" height="200">
  <path d="M904 512h-56c-4.4 0-8 3.6-8 8v320H184V184h320c4.4 0 8-3.6 8-8v-56c0-4.4-3.6-8-8-8H144c-17.7 0-32 14.3-32 32v736c0 17.7 14.3 32 32 32h736c17.7 0 32-14.3 32-32V520c0-4.4-3.6-8-8-8z" p-id="1125"></path>
  <path d="M355.9 534.9L354 653.8c-0.1 3.7 1.4 7.3 4.1 10 2.7 2.7 6.3 4.2 10 4.1l118.9-1.9c3.7-0.1 7.3-1.6 9.9-4.3l404.8-404.8c3.1-3.1 3.1-8.2 0-11.3L785.4 129.3c-3.1-3.1-8.2-3.1-11.3 0L360.2 525c-2.7 2.7-4.2 6.2-4.3 9.9z" p-id="1126"></path>
</svg> 