<svg t="1710400123163" viewBox="0 0 1024 1024" version="1.1" xmlns="http://www.w3.org/2000/svg">
  <path d="M880 184H712v-64c0-4.4-3.6-8-8-8h-56c-4.4 0-8 3.6-8 8v64H384v-64c0-4.4-3.6-8-8-8h-56c-4.4 0-8 3.6-8 8v64H144c-17.7 0-32 14.3-32 32v664c0 17.7 14.3 32 32 32h736c17.7 0 32-14.3 32-32V216c0-17.7-14.3-32-32-32z m-40 656H184V256h128v48c0 4.4 3.6 8 8 8h56c4.4 0 8-3.6 8-8v-48h256v48c0 4.4 3.6 8 8 8h56c4.4 0 8-3.6 8-8v-48h128v584z" />
  <path d="M320 384h384v64H320zM320 528h384v64H320zM320 672h384v64H320z" />
</svg> 