<svg t="1710400123181" viewBox="0 0 1024 1024" version="1.1" xmlns="http://www.w3.org/2000/svg">
  <path d="M512 128c-212 0-384 172-384 384s172 384 384 384 384-172 384-384-172-384-384-384z m0 85.333333c164.266667 0 298.666667 134.4 298.666667 298.666667s-134.4 298.666667-298.666667 298.666667-298.666667-134.4-298.666667-298.666667 134.4-298.666667 298.666667-298.666667z" />
  <path d="M512 512m-42.666667 0a42.666667 42.666667 0 1 0 85.333334 0 42.666667 42.666667 0 1 0-85.333334 0Z" />
  <path d="M512 298.666667c-117.333333 0-213.333333 96-213.333333 213.333333s96 213.333333 213.333333 213.333333 213.333333-96 213.333333-213.333333-96-213.333333-213.333333-213.333333z m0 384c-93.866667 0-170.666667-76.8-170.666667-170.666667s76.8-170.666667 170.666667-170.666667 170.666667 76.8 170.666667 170.666667-76.8 170.666667-170.666667 170.666667z" />
</svg> 