<svg t="1710400123169" viewBox="0 0 1024 1024" version="1.1" xmlns="http://www.w3.org/2000/svg">
  <path d="M832 64H296c-4.4 0-8 3.6-8 8v56c0 4.4 3.6 8 8 8h496v688c0 4.4 3.6 8 8 8h56c4.4 0 8-3.6 8-8V96c0-17.7-14.3-32-32-32z" />
  <path d="M704 192H192c-17.7 0-32 14.3-32 32v736c0 17.7 14.3 32 32 32h512c17.7 0 32-14.3 32-32V224c0-17.7-14.3-32-32-32z m-40 728H232V264h432v656z" />
  <path d="M342 472h340c4.4 0 8-3.6 8-8v-48c0-4.4-3.6-8-8-8H342c-4.4 0-8 3.6-8 8v48c0 4.4 3.6 8 8 8zM342 616h340c4.4 0 8-3.6 8-8v-48c0-4.4-3.6-8-8-8H342c-4.4 0-8 3.6-8 8v48c0 4.4 3.6 8 8 8z" />
</svg> 