<svg t="1710400123178" viewBox="0 0 1024 1024" version="1.1" xmlns="http://www.w3.org/2000/svg">
  <path d="M876.6 632.2l-77.8-77.8c-6.2-6.2-16.4-6.2-22.6 0l-48.8 48.8-51.8-51.8 48.8-48.8c6.2-6.2 6.2-16.4 0-22.6l-77.8-77.8c-6.2-6.2-16.4-6.2-22.6 0l-48.8 48.8-51.8-51.8 48.8-48.8c6.2-6.2 6.2-16.4 0-22.6l-77.8-77.8c-6.2-6.2-16.4-6.2-22.6 0l-48.8 48.8-51.8-51.8 48.8-48.8c6.2-6.2 6.2-16.4 0-22.6l-77.8-77.8c-6.2-6.2-16.4-6.2-22.6 0L147.4 292.2c-96.7 96.7-96.7 253.5 0 350.2l234.2 234.2c96.7 96.7 253.5 96.7 350.2 0l144.8-144.8c6.2-6.2 6.2-16.4 0-22.6l-77.8-77.8c-6.2-6.2-16.4-6.2-22.6 0l-48.8 48.8-51.8-51.8 48.8-48.8c6.2-6.2 6.2-16.4 0-22.6z" />
</svg> 