<svg t="1710400123146" viewBox="0 0 1024 1024" version="1.1" xmlns="http://www.w3.org/2000/svg">
  <path d="M832 464h-68.8c-12.8-44.8-32-86.4-57.6-124.8l48-48c12.8-12.8 12.8-32 0-44.8l-89.6-89.6c-12.8-12.8-32-12.8-44.8 0l-48 48c-38.4-25.6-80-44.8-124.8-57.6V64c0-19.2-12.8-32-32-32h-128c-19.2 0-32 12.8-32 32v83.2c-44.8 12.8-86.4 32-124.8 57.6l-48-48c-12.8-12.8-32-12.8-44.8 0l-89.6 89.6c-12.8 12.8-12.8 32 0 44.8l48 48c-25.6 38.4-44.8 80-57.6 124.8H64c-19.2 0-32 12.8-32 32v128c0 19.2 12.8 32 32 32h83.2c12.8 44.8 32 86.4 57.6 124.8l-48 48c-12.8 12.8-12.8 32 0 44.8l89.6 89.6c12.8 12.8 32 12.8 44.8 0l48-48c38.4 25.6 80 44.8 124.8 57.6V960c0 19.2 12.8 32 32 32h128c19.2 0 32-12.8 32-32v-83.2c44.8-12.8 86.4-32 124.8-57.6l48 48c12.8 12.8 32 12.8 44.8 0l89.6-89.6c12.8-12.8 12.8-32 0-44.8l-48-48c25.6-38.4 44.8-80 57.6-124.8H832c19.2 0 32-12.8 32-32v-128c0-19.2-12.8-32-32-32z m-320 320c-105.6 0-192-86.4-192-192s86.4-192 192-192 192 86.4 192 192-86.4 192-192 192z" />
</svg> 