<svg t="1710400123157" viewBox="0 0 1024 1024" version="1.1" xmlns="http://www.w3.org/2000/svg">
  <path d="M904 768H120c-4.4 0-8 3.6-8 8v80c0 4.4 3.6 8 8 8h784c4.4 0 8-3.6 8-8v-80c0-4.4-3.6-8-8-8zM904 544H120c-4.4 0-8 3.6-8 8v80c0 4.4 3.6 8 8 8h784c4.4 0 8-3.6 8-8v-80c0-4.4-3.6-8-8-8zM904 320H120c-4.4 0-8 3.6-8 8v80c0 4.4 3.6 8 8 8h784c4.4 0 8-3.6 8-8v-80c0-4.4-3.6-8-8-8z" />
  <path d="M320 488c0-4.4-3.6-8-8-8h-48c-4.4 0-8 3.6-8 8v48c0 4.4 3.6 8 8 8h48c4.4 0 8-3.6 8-8v-48zM760 712c0-4.4-3.6-8-8-8h-48c-4.4 0-8 3.6-8 8v48c0 4.4 3.6 8 8 8h48c4.4 0 8-3.6 8-8v-48z" />
</svg> 