<svg t="1710400123158" viewBox="0 0 1024 1024" version="1.1" xmlns="http://www.w3.org/2000/svg">
  <path d="M880 112H144c-17.7 0-32 14.3-32 32v736c0 17.7 14.3 32 32 32h736c17.7 0 32-14.3 32-32V144c0-17.7-14.3-32-32-32z m-40 728H184V184h656v656z" />
  <path d="M320 344c0-4.4 3.6-8 8-8h368c4.4 0 8 3.6 8 8v48c0 4.4-3.6 8-8 8H328c-4.4 0-8-3.6-8-8v-48zM320 544c0-4.4 3.6-8 8-8h368c4.4 0 8 3.6 8 8v48c0 4.4-3.6 8-8 8H328c-4.4 0-8-3.6-8-8v-48zM320 744c0-4.4 3.6-8 8-8h368c4.4 0 8 3.6 8 8v48c0 4.4-3.6 8-8 8H328c-4.4 0-8-3.6-8-8v-48z" />
</svg> 