<svg t="1710400123180" viewBox="0 0 1024 1024" version="1.1" xmlns="http://www.w3.org/2000/svg">
  <path d="M917.333333 573.866667h-170.666666V170.666667c0-25.6-17.066667-42.666667-42.666667-42.666667H170.666667c-25.6 0-42.666667 17.066667-42.666667 42.666667v682.666666c0 25.6 17.066667 42.666667 42.666667 42.666667h682.666666c25.6 0 42.666667-17.066667 42.666667-42.666667v-238.933333c0-21.333333-17.066667-40.533333-42.666667-40.533333zM384 768h-128v-85.333333h128v85.333333z m0-170.666667h-128v-85.333333h128v85.333333z m0-170.666666h-128v-85.333334h128v85.333334z m213.333333 341.333333h-128v-85.333333h128v85.333333z m0-170.666667h-128v-85.333333h128v85.333333z m0-170.666666h-128v-85.333334h128v85.333334z m234.666667 341.333333h-149.333333v-85.333333h149.333333v85.333333z" />
</svg> 