<svg t="1710400123137" viewBox="0 0 1024 1024" version="1.1" xmlns="http://www.w3.org/2000/svg">
  <path d="M512 320c-105.6 0-192 86.4-192 192s86.4 192 192 192 192-86.4 192-192-86.4-192-192-192z m0 320c-70.4 0-128-57.6-128-128s57.6-128 128-128 128 57.6 128 128-57.6 128-128 128z" />
  <path d="M896 448h-42.4c-12.8-44.8-32-86.4-57.6-124.8l28.8-28.8c12.8-12.8 12.8-32 0-44.8l-67.2-67.2c-12.8-12.8-32-12.8-44.8 0l-28.8 28.8c-38.4-25.6-80-44.8-124.8-57.6V112c0-19.2-12.8-32-32-32h-96c-19.2 0-32 12.8-32 32v41.6c-44.8 12.8-86.4 32-124.8 57.6l-28.8-28.8c-12.8-12.8-32-12.8-44.8 0l-67.2 67.2c-12.8 12.8-12.8 32 0 44.8l28.8 28.8c-25.6 38.4-44.8 80-57.6 124.8H128c-19.2 0-32 12.8-32 32v96c0 19.2 12.8 32 32 32h41.6c12.8 44.8 32 86.4 57.6 124.8l-28.8 28.8c-12.8 12.8-12.8 32 0 44.8l67.2 67.2c12.8 12.8 32 12.8 44.8 0l28.8-28.8c38.4 25.6 80 44.8 124.8 57.6V912c0 19.2 12.8 32 32 32h96c19.2 0 32-12.8 32-32v-41.6c44.8-12.8 86.4-32 124.8-57.6l28.8 28.8c12.8 12.8 32 12.8 44.8 0l67.2-67.2c12.8-12.8 12.8-32 0-44.8l-28.8-28.8c25.6-38.4 44.8-80 57.6-124.8H896c19.2 0 32-12.8 32-32v-96c0-19.2-12.8-32-32-32z m-32 96h-48c-12.8 0-25.6 9.6-28.8 22.4-12.8 48-35.2 92.8-64 131.2-9.6 9.6-9.6 25.6-3.2 35.2l35.2 35.2-22.4 22.4-35.2-35.2c-9.6-9.6-25.6-9.6-35.2 3.2-38.4 28.8-83.2 51.2-131.2 64-12.8 3.2-22.4 16-22.4 28.8v48h-32v-48c0-12.8-9.6-25.6-22.4-28.8-48-12.8-92.8-35.2-131.2-64-9.6-9.6-25.6-9.6-35.2-3.2l-35.2 35.2-22.4-22.4 35.2-35.2c9.6-9.6 9.6-25.6-3.2-35.2-28.8-38.4-51.2-83.2-64-131.2-3.2-12.8-16-22.4-28.8-22.4h-48v-32h48c12.8 0 25.6-9.6 28.8-22.4 12.8-48 35.2-92.8 64-131.2 9.6-9.6 9.6-25.6 3.2-35.2l-35.2-35.2 22.4-22.4 35.2 35.2c9.6 9.6 25.6 9.6 35.2-3.2 38.4-28.8 83.2-51.2 131.2-64 12.8-3.2 22.4-16 22.4-28.8v-48h32v48c0 12.8 9.6 25.6 22.4 28.8 48 12.8 92.8 35.2 131.2 64 9.6 9.6 25.6 9.6 35.2 3.2l35.2-35.2 22.4 22.4-35.2 35.2c-9.6 9.6-9.6 25.6 3.2 35.2 28.8 38.4 51.2 83.2 64 131.2 3.2 12.8 16 22.4 28.8 22.4h48v32z" />
</svg> 