<svg t="1710400123127" viewBox="0 0 1024 1024" version="1.1" xmlns="http://www.w3.org/2000/svg">
  <path d="M512 85.333333c-234.666667 0-426.666667 192-426.666667 426.666667s192 426.666667 426.666667 426.666667 426.666667-192 426.666667-426.666667-192-426.666667-426.666667-426.666667z m0 768c-187.733333 0-341.333333-153.6-341.333333-341.333333s153.6-341.333333 341.333333-341.333333 341.333333 153.6 341.333333 341.333333-153.6 341.333333-341.333333 341.333333z" />
  <path d="M512 298.666667c-23.466667 0-42.666667 19.2-42.666667 42.666666v170.666667c0 23.466667 19.2 42.666667 42.666667 42.666667h170.666667c23.466667 0 42.666667-19.2 42.666666-42.666667s-19.2-42.666667-42.666666-42.666667h-128V341.333333c0-23.466667-19.2-42.666667-42.666667-42.666666z" />
</svg> 