<svg t="1710400123135" viewBox="0 0 1024 1024" version="1.1" xmlns="http://www.w3.org/2000/svg">
  <path d="M512 85.333333c-235.52 0-426.666667 191.146667-426.666667 426.666667s191.146667 426.666667 426.666667 426.666667 426.666667-191.146667 426.666667-426.666667-191.146667-426.666667-426.666667-426.666667z m0 768c-188.586667 0-341.333333-152.746667-341.333333-341.333333s152.746667-341.333333 341.333333-341.333333 341.333333 152.746667 341.333333 341.333333-152.746667 341.333333-341.333333 341.333333z" />
  <path d="M512 469.333333c58.88 0 106.666667-47.786667 106.666667-106.666666s-47.786667-106.666667-106.666667-106.666667-106.666667 47.786667-106.666667 106.666667 47.786667 106.666667 106.666667 106.666666z m0 42.666667c-71.253333 0-213.333333 35.84-213.333333 106.666667v42.666666h426.666666v-42.666666c0-70.826667-142.08-106.666667-213.333333-106.666667z" />
</svg> 