<svg t="1710400123176" viewBox="0 0 1024 1024" version="1.1" xmlns="http://www.w3.org/2000/svg">
  <path d="M512 64L128 320v576c0 35.2 28.8 64 64 64h640c35.2 0 64-28.8 64-64V320L512 64z m384 832c0 17.6-14.4 32-32 32H160c-17.6 0-32-14.4-32-32V339.2l384-230.4 384 230.4V896z" />
  <path d="M424 444.8c-6.4-6.4-16-6.4-22.4 0l-96 96c-6.4 6.4-6.4 16 0 22.4s16 6.4 22.4 0l96-96c6.4-6.4 6.4-16 0-22.4z" />
  <path d="M718.4 444.8c-6.4-6.4-16-6.4-22.4 0l-96 96c-6.4 6.4-6.4 16 0 22.4s16 6.4 22.4 0l96-96c6.4-6.4 6.4-16 0-22.4z" />
  <path d="M424 652.8c-6.4-6.4-16-6.4-22.4 0l-96 96c-6.4 6.4-6.4 16 0 22.4s16 6.4 22.4 0l96-96c6.4-6.4 6.4-16 0-22.4z" />
  <path d="M718.4 652.8c-6.4-6.4-16-6.4-22.4 0l-96 96c-6.4 6.4-6.4 16 0 22.4s16 6.4 22.4 0l96-96c6.4-6.4 6.4-16 0-22.4z" />
</svg> 